HIERARCHY
ROOT Hips
{
  OFFSET 5.84602e-005 68.8428 3.50346
  CHANNELS 6 Xposition Yposition Zposition Zrotation Xrotation Yrotation
  JOINT Spine
  {
    OFFSET 0 8.597 -4.6522
    CHANNELS 3 Zrotation Xrotation Yrotation
    JOINT Spine1
    {
      OFFSET 0 7.8454 0.4098
      CHANNELS 3 Zrotation Xrotation Yrotation
      JOINT Spine2
      {
        OFFSET 0 9.7078 -2.1609
        CHANNELS 3 Zrotation Xrotation Yrotation
        JOINT Neck
        {
          OFFSET 0 21.8761 -0.4549
          CHANNELS 3 Zrotation Xrotation Yrotation
          JOINT Head
          {
            OFFSET 0 12.3537 3.3602
            CHANNELS 3 Zrotation Xrotation Yrotation
            End Site
            {
              OFFSET 0.0001 18.9506 0.5657
            }
          }
        }
        JOINT LeftShoulder
        {
          OFFSET 2.2086 21.1115 7.2329
          CHANNELS 3 Zrotation Xrotation Yrotation
          JOINT LeftArm
          {
            OFFSET 13.1193 3.0282 -4.8998
            CHANNELS 3 Zrotation Xrotation Yrotation
            JOINT LeftForeArm
            {
              OFFSET 27.4081 -0.0973053 -0.2375
              CHANNELS 3 Zrotation Xrotation Yrotation
              JOINT LeftHand
              {
                OFFSET 22.8641 0.0662994 -0.1369
                CHANNELS 3 Zrotation Xrotation Yrotation
                JOINT LeftHandIndex1
                {
                  OFFSET 8.8614 0.775009 2.4612
                  CHANNELS 3 Zrotation Xrotation Yrotation
                  JOINT LeftHandIndex2
                  {
                    OFFSET 3.3146 -0.808304 0.5841
                    CHANNELS 3 Zrotation Xrotation Yrotation
                    JOINT LeftHandIndex3
                    {
                      OFFSET 2.2628 -0.552002 0.3989
                      CHANNELS 3 Zrotation Xrotation Yrotation
                      End Site
                      {
                        OFFSET 1.6102 -0.4807 0.2612
                      }
                    }
                  }
                }
                JOINT LeftHandMiddle1
                {
                  OFFSET 8.9937 0.895004 0.2143
                  CHANNELS 3 Zrotation Xrotation Yrotation
                  JOINT LeftHandMiddle2
                  {
                    OFFSET 4.0984 0.0113983 -0.0242
                    CHANNELS 3 Zrotation Xrotation Yrotation
                    JOINT LeftHandMiddle3
                    {
                      OFFSET 2.2716 0.00689697 -0.0138001
                      CHANNELS 3 Zrotation Xrotation Yrotation
                      End Site
                      {
                        OFFSET 2.0404 -0.1441 0.0027
                      }
                    }
                  }
                }
                JOINT LeftHandRing1
                {
                  OFFSET 8.5234 0.597198 -2.0164
                  CHANNELS 3 Zrotation Xrotation Yrotation
                  JOINT LeftHandRing2
                  {
                    OFFSET 3.7188 -0.188293 -0.2328
                    CHANNELS 3 Zrotation Xrotation Yrotation
                    JOINT LeftHandRing3
                    {
                      OFFSET 2.1191 -0.106598 -0.1332
                      CHANNELS 3 Zrotation Xrotation Yrotation
                      End Site
                      {
                        OFFSET 1.8737 -0.2304 -0.0886
                      }
                    }
                  }
                }
                JOINT LeftHandPinky1
                {
                  OFFSET 7.9094 -0.601089 -3.4825
                  CHANNELS 3 Zrotation Xrotation Yrotation
                  JOINT LeftHandPinky2
                  {
                    OFFSET 2.2874 -0.477005 -0.6314
                    CHANNELS 3 Zrotation Xrotation Yrotation
                    JOINT LeftHandPinky3
                    {
                      OFFSET 1.6774 -0.349396 -0.4633
                      CHANNELS 3 Zrotation Xrotation Yrotation
                      End Site
                      {
                        OFFSET 1.4888 -0.4091 -0.3416
                      }
                    }
                  }
                }
                JOINT LeftHandThumb1
                {
                  OFFSET 1.833 -1.3875 1.3896
                  CHANNELS 3 Zrotation Xrotation Yrotation
                  JOINT LeftHandThumb2
                  {
                    OFFSET 3.4129 -1.121 2.5732
                    CHANNELS 3 Zrotation Xrotation Yrotation
                    JOINT LeftHandThumb3
                    {
                      OFFSET 2.2474 -0.804199 1.6192
                      CHANNELS 3 Zrotation Xrotation Yrotation
                      End Site
                      {
                        OFFSET 1.6527 -0.5689 1.1317
                      }
                    }
                  }
                }
              }
            }
          }
        }
        JOINT RightShoulder
        {
          OFFSET -2.2086 21.1115 7.2329
          CHANNELS 3 Zrotation Xrotation Yrotation
          JOINT RightArm
          {
            OFFSET -13.1216 3.0287 -4.9007
            CHANNELS 3 Zrotation Xrotation Yrotation
            JOINT RightForeArm
            {
              OFFSET -27.4081 -0.0973053 -0.2375
              CHANNELS 3 Zrotation Xrotation Yrotation
              JOINT RightHand
              {
                OFFSET -22.8641 0.0664063 -0.1369
                CHANNELS 3 Zrotation Xrotation Yrotation
                JOINT RightHandIndex1
                {
                  OFFSET -8.8614 0.774994 2.4612
                  CHANNELS 3 Zrotation Xrotation Yrotation
                  JOINT RightHandIndex2
                  {
                    OFFSET -3.3146 -0.808304 0.5841
                    CHANNELS 3 Zrotation Xrotation Yrotation
                    JOINT RightHandIndex3
                    {
                      OFFSET -2.2628 -0.552002 0.3989
                      CHANNELS 3 Zrotation Xrotation Yrotation
                      End Site
                      {
                        OFFSET -1.6102 -0.4807 0.2612
                      }
                    }
                  }
                }
                JOINT RightHandMiddle1
                {
                  OFFSET -8.9937 0.894989 0.2143
                  CHANNELS 3 Zrotation Xrotation Yrotation
                  JOINT RightHandMiddle2
                  {
                    OFFSET -4.0984 0.0113983 -0.0242
                    CHANNELS 3 Zrotation Xrotation Yrotation
                    JOINT RightHandMiddle3
                    {
                      OFFSET -2.2716 0.00691223 -0.0138001
                      CHANNELS 3 Zrotation Xrotation Yrotation
                      End Site
                      {
                        OFFSET -2.0404 -0.1441 0.0027
                      }
                    }
                  }
                }
                JOINT RightHandRing1
                {
                  OFFSET -8.5234 0.597198 -2.0164
                  CHANNELS 3 Zrotation Xrotation Yrotation
                  JOINT RightHandRing2
                  {
                    OFFSET -3.7188 -0.188309 -0.2328
                    CHANNELS 3 Zrotation Xrotation Yrotation
                    JOINT RightHandRing3
                    {
                      OFFSET -2.1191 -0.106598 -0.1332
                      CHANNELS 3 Zrotation Xrotation Yrotation
                      End Site
                      {
                        OFFSET -1.8737 -0.2304 -0.0886
                      }
                    }
                  }
                }
                JOINT RightHandPinky1
                {
                  OFFSET -7.9094 -0.601105 -3.4825
                  CHANNELS 3 Zrotation Xrotation Yrotation
                  JOINT RightHandPinky2
                  {
                    OFFSET -2.2874 -0.477005 -0.6314
                    CHANNELS 3 Zrotation Xrotation Yrotation
                    JOINT RightHandPinky3
                    {
                      OFFSET -1.6774 -0.349396 -0.4633
                      CHANNELS 3 Zrotation Xrotation Yrotation
                      End Site
                      {
                        OFFSET -1.4888 -0.4091 -0.3416
                      }
                    }
                  }
                }
                JOINT RightHandThumb1
                {
                  OFFSET -1.833 -1.38751 1.3896
                  CHANNELS 3 Zrotation Xrotation Yrotation
                  JOINT RightHandThumb2
                  {
                    OFFSET -3.41299 -1.12099 2.5732
                    CHANNELS 3 Zrotation Xrotation Yrotation
                    JOINT RightHandThumb3
                    {
                      OFFSET -2.24741 -0.804108 1.6192
                      CHANNELS 3 Zrotation Xrotation Yrotation
                      End Site
                      {
                        OFFSET -1.6527 -0.5689 1.1317
                      }
                    }
                  }
                }
              }
            }
          }
        }
      }
    }
  }
  JOINT RightUpLeg
  {
    OFFSET -9.1966 3.8861 -0.7581
    CHANNELS 3 Zrotation Xrotation Yrotation
    JOINT RightLeg
    {
      OFFSET -0.7359 -41.0265 0
      CHANNELS 3 Zrotation Xrotation Yrotation
      JOINT RightFoot
      {
        OFFSET 0 -40.2855 0
        CHANNELS 3 Zrotation Xrotation Yrotation
        JOINT RightToeBase
        {
          OFFSET 0 -5.6122 11.7359
          CHANNELS 3 Zrotation Xrotation Yrotation
          End Site
          {
            OFFSET 0 0 7.8731
          }
        }
      }
    }
  }
  JOINT LeftUpLeg
  {
    OFFSET 9.1965 3.8864 -0.7581
    CHANNELS 3 Zrotation Xrotation Yrotation
    JOINT LeftLeg
    {
      OFFSET 0.7359 -41.0268 0
      CHANNELS 3 Zrotation Xrotation Yrotation
      JOINT LeftFoot
      {
        OFFSET 0 -40.2855 0
        CHANNELS 3 Zrotation Xrotation Yrotation
        JOINT LeftToeBase
        {
          OFFSET 0 -5.6122 11.7359
          CHANNELS 3 Zrotation Xrotation Yrotation
          End Site
          {
            OFFSET 0 0 7.8731
          }
        }
      }
    }
  }
}
MOTION
Frames:	4
Frame Time:	0.0333333
5.84602e-005 68.8428 3.50346 0 0 -0 0 0 -0 0 0 -0 0 0 -0 0 0 -0 0 0 -0 0 0 -0 0 0 -0 0 0 -0 0 0 -0 0 0 -0 0 0 -0 0 0 -0 0 0 -0 -0.0146107 -8.87603e-005 -2.63497e-007 2.99804e-018 -2.42657e-020 -1.42182e-022 0 0 -0 -0.0187562 -0.001176 5.858e-005 5.06224e-018 3.88251e-019 1.21329e-020 0 0 -0 -0.012269 -0.00324817 0.000675346 -1.74678e-018 3.88251e-019 -0 0 0 -0 0 0 -0 0 0 -0 0 0 -0 0 0 -0 0 0 -0 0 0 -0 0 0 -0 0 0 -0 0 0 -0 0 0 -0 0.0149955 -9.10982e-005 2.64101e-007 -9.69331e-018 1.21329e-020 -4.7394e-023 0 0 -0 0.0189956 -0.00119102 -5.96516e-005 -5.41541e-019 0 2.42657e-020 0 0 -0 0.0122698 -0.00324857 -0.000673756 -2.00796e-019 0 -1.94126e-019 0 0 -0 0 0 -0 0 0 -0 3.39842 1.33031 -0.0637918 -5.65207e-008 0.834868 -0.000436188 -3.39935 -2.16518 -0.0642563 -8.89002e-024 -1.18485e-023 -1.48106e-024 -3.39844 1.35642 0.0640283 -3.18788e-007 0.782166 -0.000588827 3.39931 -2.13858 0.0634662 1.1399e-023 0 -0 
-2.77679 11.3786 54.0684 -59.2287 -38.8878 110.357 0.270745 -2.9684 -0.088681 0.53797 -5.93704 -0.16362 0.537978 -5.93706 -0.163628 8.24237e-006 7.36589 -8.63288e-006 5.10956e-006 -41.3307 3.911e-006 19.0632 -27.4434 7.77997 -34.8646 -7.45912 -32.5038 1.51719 -36.6346 -69.3692 -8.02261 -8.50631 16.7604 1.41956e-006 -7.24828e-007 -5.36232e-007 1.41956e-006 -7.24828e-007 -5.36232e-007 1.41956e-006 -7.24828e-007 -5.36232e-007 1.41956e-006 -7.24828e-007 -5.36232e-007 -0.0146094 -8.66853e-005 -1.05974e-006 1.4196e-006 -7.24759e-007 -5.36326e-007 1.41956e-006 -7.24828e-007 -5.36232e-007 -0.0187475 -0.00117612 5.68997e-005 1.4196e-006 -7.24737e-007 -5.36366e-007 1.41956e-006 -7.24828e-007 -5.36232e-007 -0.0122871 -0.00326062 0.000674992 1.41957e-006 -7.2477e-007 -5.36352e-007 1.41956e-006 -7.24828e-007 -5.36232e-007 1.41956e-006 -7.24828e-007 -5.36232e-007 1.41956e-006 -7.24828e-007 -5.36232e-007 -19.2238 -27.4882 -7.44059 34.8778 -7.37007 32.4233 -1.42168 -36.9231 69.9748 7.56932 -8.42351 -17.2678 -1.49577e-006 3.68583e-006 6.38838e-007 -1.27222e-014 -3.18055e-015 -9.54166e-015 4.268e-008 3.27988e-006 3.38237e-008 -1.49577e-006 3.68583e-006 6.38838e-007 0.0150046 -9.02495e-005 2.14909e-006 4.28473e-008 3.27988e-006 3.33942e-008 -1.49577e-006 3.68583e-006 6.38838e-007 0.0189596 -0.00118753 -5.921e-005 4.28899e-008 3.27987e-006 3.32799e-008 -1.49577e-006 3.68583e-006 6.38838e-007 0.012255 -0.00324377 -0.000675102 1.33857e-007 5.10915e-006 -1.71193e-007 -1.49577e-006 3.68583e-006 6.38838e-007 -1.27222e-014 -3.18055e-015 -9.54166e-015 4.268e-008 3.27988e-006 3.38237e-008 -1.09125 0.0918106 -2.48983 -13.0568 74.1858 11.5242 -6.5483 39.5653 -3.13823 -3.97569e-016 7.95139e-016 6.36111e-015 2.47943 -1.30814 2.52449 11.3192 73.4676 -10.3985 7.39734 39.1697 2.50854 7.95139e-016 -1.39149e-015 -9.54166e-015 
2.14298 -11.673 80.924 117.661 -75.3762 -63.373 0.382637 -4.2754 -0.148611 0.757274 -8.55168 -0.26963 0.757275 -8.55166 -0.269629 2.52809e-005 10.8428 -1.05107e-005 -1.00497e-006 -60.6913 -1.96764e-006 30.8378 -39.4428 13.1041 -53.0801 -8.73912 -47.4018 -8.02447 -19.3758 -91.3165 -10.0151 -11.7407 24.5744 -8.80153e-007 -3.15524e-006 7.25868e-008 -1.08607e-006 9.8311e-007 7.69636e-007 -8.80153e-007 -3.15524e-006 7.25868e-008 -8.80153e-007 -3.15524e-006 7.25868e-008 -0.0146134 -8.89117e-005 6.86029e-006 -2.92845e-006 -1.62376e-006 -3.30306e-006 -8.80153e-007 -3.15524e-006 7.25868e-008 -0.0187738 -0.00118378 5.83822e-005 -8.79833e-007 -3.15523e-006 7.2078e-008 -8.80153e-007 -3.15524e-006 7.25868e-008 -0.0122967 -0.00325472 0.000677128 -8.79959e-007 -3.15519e-006 7.22617e-008 -8.80153e-007 -3.15524e-006 7.25868e-008 -1.08607e-006 9.8311e-007 7.69636e-007 -8.80153e-007 -3.15524e-006 7.25868e-008 -30.9458 -39.5431 -12.5471 53.0639 -8.64548 47.279 8.01876 -19.3261 91.7577 9.32846 -11.5896 -25.3111 3.18055e-015 0 7.95139e-016 -1.07384e-007 -2.02031e-006 -3.0171e-006 4.05637e-006 -9.8104e-007 -2.14345e-006 3.18055e-015 0 7.95139e-016 0.0149882 -9.23882e-005 -1.25168e-005 4.53507e-006 5.38302e-007 -7.17107e-009 3.18055e-015 0 7.95139e-016 0.0190008 -0.00119191 -6.66015e-005 4.05616e-006 -9.81381e-007 -2.14332e-006 3.18055e-015 0 7.95139e-016 0.0122719 -0.00325246 -0.000676621 3.57756e-006 -2.50046e-006 -4.27955e-006 3.18055e-015 0 7.95139e-016 -1.07384e-007 -2.02031e-006 -3.0171e-006 4.05637e-006 -9.8104e-007 -2.14345e-006 -2.94656 -0.589925 -4.45095 -162.39 72.3176 158.171 -4.11524 59.3352 -7.78544 -4.80464e-006 -6.51976e-007 1.59864e-007 4.9717 -2.68065 4.41498 161.239 73.3288 -157.987 6.06083 58.7901 6.3013 2.64739e-007 -5.75498e-008 -3.2954e-007 
0.492516 -6.67929 75.5276 -90.3963 -89.7304 89.3514 0.358744 -3.92174 -0.133889 0.71078 -7.84421 -0.243955 0.71078 -7.84425 -0.243955 1.19554e-005 10.433 -8.97279e-006 -9.68197e-007 -58.083 -9.24136e-007 28.1713 -36.968 11.9865 -48.9412 -8.61685 -44.0869 -6.99752 -24.2572 -88.7703 -9.65488 -11.0712 22.8183 3.0415e-006 1.42159e-006 -1.47253e-006 -3.18055e-015 4.77083e-015 1.19271e-015 1.17694e-006 -9.32285e-007 -7.21324e-007 3.0415e-006 1.42159e-006 -1.47253e-006 -0.0146049 -9.07298e-005 -4.8234e-006 1.16783e-006 1.25254e-006 -1.75953e-006 3.0415e-006 1.42159e-006 -1.47253e-006 -0.0187553 -0.00117892 6.05813e-005 1.17699e-006 -9.32163e-007 -7.21489e-007 3.0415e-006 1.42159e-006 -1.47253e-006 -0.0122281 -0.00323597 0.000675586 1.17695e-006 -9.32204e-007 -7.21459e-007 3.0415e-006 1.42159e-006 -1.47253e-006 -3.18055e-015 4.77083e-015 1.19271e-015 1.17694e-006 -9.32285e-007 -7.21324e-007 -28.2995 -37.054 -11.4833 48.9325 -8.5215 43.9734 7.03766 -24.2593 89.3195 9.02103 -10.9377 -23.5042 -8.64408e-032 -3.26752e-015 -1.51573e-015 -3.18055e-015 7.19352e-015 -3.23025e-015 -3.18055e-015 4.05024e-015 -1.54058e-015 -8.64408e-032 -3.26752e-015 -1.51573e-015 0.0150263 -9.4356e-005 2.55194e-006 6.36111e-015 4.09993e-015 -3.8266e-015 -8.64408e-032 -3.26752e-015 -1.51573e-015 0.0189768 -0.00118984 -5.83343e-005 3.18055e-015 -2.45996e-015 -0 -8.64408e-032 -3.26752e-015 -1.51573e-015 0.0122732 -0.0032472 -0.0006787 -3.18055e-015 -2.28602e-015 -2.73329e-015 -8.64408e-032 -3.26752e-015 -1.51573e-015 -3.18055e-015 7.19352e-015 -3.23025e-015 -3.18055e-015 4.05024e-015 -1.54058e-015 -2.54161 -0.44162 -3.90879 -152.601 79.0339 149.128 -5.20564 54.8821 -6.23034 9.37683e-008 1.96007e-009 -9.42667e-007 4.42383 -2.37925 3.90074 150.39 79.9688 -147.795 6.80563 54.3938 5.03927 9.69204e-008 -6.07171e-008 3.98977e-006 
